<svg width="1200" height="1200" viewBox="0 0 1200 1200" fill="none" xmlns="http://www.w3.org/2000/svg">
<rect width="1200" height="1200" rx="600" fill="white"/>
<path fill-rule="evenodd" clip-rule="evenodd" d="M1020 600C1020 831.96 831.96 1020 600 1020C368.04 1020 180 831.96 180 600C180 368.04 368.04 180 600 180C831.96 180 1020 368.04 1020 600ZM600 240C798.823 240 960 401.178 960 600C960 614.142 959.185 628.094 957.598 641.81C881.192 579.649 788.84 536.518 687 521C687 521 708 481.023 708 456.723C708 397.076 659.647 349.5 600 349.5C540.353 349.5 492 397.076 492 456.723C492 481.072 513 521 513 521C411.116 536.659 318.836 580.068 242.471 642.406C240.839 628.498 240 614.347 240 600C240 401.178 401.177 240 600 240ZM256.896 709.313C264.203 732.268 273.75 754.224 285.28 774.924C309.518 717.842 340 667.5 377 626.5C333.333 648.11 291.5 675.5 256.896 709.313ZM427.751 916.195C388.954 895.015 354.484 866.903 326.007 833.523C365 727 425.5 642 503 599.5C467.5 671 440.702 781.897 427.751 916.195ZM486.319 941.682C522.053 953.566 560.275 960 600 960C639.294 960 677.117 953.705 712.516 942.068C698.337 719 630.5 574.836 599 575C567.5 575.164 500.5 723.5 486.319 941.682ZM872.682 835.051C844.18 868.086 809.776 895.887 771.109 916.815C758.288 783.312 731.698 671.238 695.5 599.5C770.383 638.917 834.305 723.78 872.682 835.051ZM913.671 776.795C925.768 755.377 935.735 732.598 943.285 708.743C906.234 674.634 865.455 645.982 820.785 624.058C857.283 665.586 888.674 717.416 913.671 776.795Z" fill="#BC002D"/>
</svg>
